<svg width="218" height="218" viewBox="0 0 218 218" fill="none" xmlns="http://www.w3.org/2000/svg">
<path fill-rule="evenodd" clip-rule="evenodd" d="M109 29.5V3C161.159 3 204.52 40.6734 213.355 90.2941C213.355 90.2941 163.047 48.5414 142.671 36.6706C122.294 24.7998 109 29.5 109 29.5Z" fill="#A741F5"/>
<path d="M90.2941 4.64528C40.6734 13.4803 3 56.8406 3 109H29.5C29.5 109 24.8002 96.953 36.671 76.5765C48.5418 56.1999 90.2941 4.64528 90.2941 4.64528Z" fill="#A741F5"/>
<path d="M4.64528 127.706C13.4803 177.327 56.8406 215 109 215V188.5C109 188.5 95.7059 194.447 75.3294 182.576C54.9529 170.706 4.64528 127.706 4.64528 127.706Z" fill="#A741F5"/>
<path d="M127.706 213.355C177.327 204.52 215 161.159 215 109H188.5C188.5 109 194.447 122.294 182.576 142.671C170.706 163.047 127.706 213.355 127.706 213.355Z" fill="#A741F5"/>
<path d="M109 215C56.8406 215 13.4803 177.327 4.64528 127.706C4.64528 127.706 54.9529 170.706 75.3294 182.576C95.7059 194.447 109 188.5 109 188.5M109 215C109 204.651 109 188.5 109 188.5M109 215V188.5M109 109H188.5M109 109V29.5M109 109H29.5M109 109V188.5M188.5 109H215C215 161.159 177.327 204.52 127.706 213.355C127.706 213.355 170.706 163.047 182.576 142.671C194.447 122.294 188.5 109 188.5 109ZM109 29.5V3C161.159 3 204.52 40.6734 213.355 90.2941C213.355 90.2941 163.047 48.5414 142.671 36.6706C122.294 24.7998 109 29.5 109 29.5ZM29.5 109H3C3 56.8406 40.6734 13.4803 90.2941 4.64528C90.2941 4.64528 48.5418 56.1999 36.671 76.5765C24.8002 96.953 29.5 109 29.5 109Z" stroke="#A741F5" stroke-width="5"/>
</svg>
