<svg width="58" height="58" viewBox="0 0 58 58" fill="none" xmlns="http://www.w3.org/2000/svg">
<path d="M29 19.3333C33.5917 19.3333 37.4583 22.475 38.425 26.825C38.6667 28.0333 40.1167 29 41.325 28.5167C42.5333 28.275 43.5 26.825 43.0167 25.6167C41.5667 18.85 35.7667 14.5 29 14.5C21.025 14.5 14.5 21.025 14.5 29C14.5 36.4917 20.3 42.775 27.7917 43.5H28.0333C29.2417 43.5 30.2083 42.5333 30.45 41.325C30.6917 40.1167 29.4833 38.9083 28.275 38.6667C23.4417 38.1833 19.3333 33.8333 19.3333 29C19.3333 23.6833 23.6833 19.3333 29 19.3333Z" fill="white"/>
<path d="M28.9997 48.3335C18.3663 48.3335 9.66634 39.6335 9.66634 29.0002C9.66634 18.3668 18.3663 9.66683 28.9997 9.66683C39.1497 9.66683 47.608 17.6418 48.333 27.7918C48.333 29.2418 49.5413 30.2085 50.9913 29.9668C52.4413 29.9668 53.408 28.7585 53.1663 27.3085C52.1997 14.7418 41.808 4.8335 28.9997 4.8335C15.708 4.8335 4.83301 15.7085 4.83301 29.0002C4.83301 42.2918 15.708 53.1668 28.9997 53.1668C30.4497 53.1668 31.4163 52.2002 31.4163 50.7502C31.4163 49.3002 30.4497 48.3335 28.9997 48.3335Z" fill="white"/>
<path d="M51.4752 35.0419C51.2335 34.8002 50.7502 34.5585 50.5085 34.5585L34.8002 29.2419C33.3502 28.7585 31.6585 29.2419 30.4502 30.4502C29.2419 31.6585 29.0002 33.3502 29.7252 34.8002L36.9752 50.7502C37.7002 52.2002 39.1502 53.1669 40.6002 53.1669H41.3252C43.2585 52.9252 44.4669 51.4752 44.7085 49.5419L45.4335 43.7419L50.2669 42.2919C51.7169 41.8085 52.9252 40.6002 53.1669 38.9085C53.4085 37.4585 52.6835 35.7669 51.4752 35.0419ZM43.7419 39.1502C42.0502 39.6335 41.0835 40.8419 40.8419 42.5335L40.3585 46.1585L35.0419 34.3169L46.6419 38.1835L43.7419 39.1502Z" fill="white"/>
</svg>
