<svg width="460" height="460" viewBox="0 0 460 460" fill="none" xmlns="http://www.w3.org/2000/svg">
<path d="M315.653 258.261L344.348 286.957V258.261H315.653Z" fill="url(#paint0_linear_37_5)"/>
<path d="M200.87 315.653L172.174 344.348H200.87V315.653Z" fill="url(#paint1_linear_37_5)"/>
<path d="M143.478 200.87L114.783 172.174V200.87H143.478Z" fill="url(#paint2_linear_37_5)"/>
<path d="M286.957 114.783H258.261V143.478L286.957 114.783Z" fill="url(#paint3_linear_37_5)"/>
<path d="M258.261 373.044L229.566 344.348L200.87 373.044L229.566 401.74L258.261 373.044Z" fill="url(#paint4_linear_37_5)"/>
<path d="M373.044 258.261L401.74 229.566L373.044 200.87L344.348 229.566L373.044 258.261Z" fill="url(#paint5_linear_37_5)"/>
<path d="M200.87 373.044L172.174 344.348L170.83 401.74L200.87 373.044Z" fill="url(#paint6_linear_37_5)"/>
<path d="M229.566 344.348L258.261 315.653H200.87L229.566 344.348Z" fill="url(#paint7_linear_37_5)"/>
<path d="M258.261 373.044L286.957 401.74V344.348L258.261 373.044Z" fill="url(#paint8_linear_37_5)"/>
<path d="M258.261 315.653L286.957 344.348V286.957H229.566L258.261 315.653Z" fill="url(#paint9_linear_37_5)"/>
<path d="M373.044 258.261L344.348 286.957H401.74L373.044 258.261Z" fill="url(#paint10_linear_37_5)"/>
<path d="M315.653 258.261L344.348 229.566L315.653 200.87V258.261Z" fill="url(#paint11_linear_37_5)"/>
<path d="M373.044 200.87L401.74 172.174H344.348L373.044 200.87Z" fill="url(#paint12_linear_37_5)"/>
<path d="M315.653 200.87L344.348 172.174H286.957V229.566L315.653 200.87Z" fill="url(#paint13_linear_37_5)"/>
<path d="M258.261 86.0871L286.957 114.783V57.3914L258.261 86.0871Z" fill="url(#paint14_linear_37_5)"/>
<path d="M200.87 86.0871L229.566 114.783L258.261 86.0871L229.566 57.3914L200.87 86.0871Z" fill="url(#paint15_linear_37_5)"/>
<path d="M200.87 86.0871L172.174 57.3914V114.783L200.87 86.0871Z" fill="url(#paint16_linear_37_5)"/>
<path d="M258.261 143.478L229.566 114.783L200.87 143.478H258.261Z" fill="url(#paint17_linear_37_5)"/>
<path d="M258.261 143.478L286.957 172.174L315.653 143.478H258.261Z" fill="url(#paint18_linear_37_5)"/>
<path d="M286.957 286.957L315.653 315.653V258.261L286.957 286.957Z" fill="url(#paint19_linear_37_5)"/>
<path d="M200.87 315.653L172.174 286.957L143.478 315.653H200.87Z" fill="url(#paint20_linear_37_5)"/>
<path d="M172.174 229.566L143.478 258.261L114.783 286.957H172.174V229.566Z" fill="url(#paint21_linear_37_5)"/>
<path d="M229.566 229.566L200.87 258.261V315.653L229.566 286.957V229.566Z" fill="url(#paint22_linear_37_5)"/>
<path d="M143.478 200.87L172.174 229.566H229.566L200.87 200.87H143.478Z" fill="url(#paint23_linear_37_5)"/>
<path d="M258.261 143.478L229.566 172.174V229.566L258.261 200.87V143.478Z" fill="url(#paint24_linear_37_5)"/>
<path d="M229.566 229.566L258.261 258.261H315.653L286.957 229.566H229.566Z" fill="url(#paint25_linear_37_5)"/>
<path d="M143.478 200.87L114.783 229.566L143.478 258.261V200.87Z" fill="url(#paint26_linear_37_5)"/>
<path d="M86.0871 258.261L57.3914 286.957H114.783L86.0871 258.261Z" fill="url(#paint27_linear_37_5)"/>
<path d="M86.0871 258.261L114.783 229.566L86.0871 200.87L57.3914 229.566L86.0871 258.261Z" fill="url(#paint28_linear_37_5)"/>
<path d="M86.0871 200.87L114.783 172.174H57.3914L86.0871 200.87Z" fill="url(#paint29_linear_37_5)"/>
<path d="M143.478 200.87L172.174 172.174L143.478 143.478V200.87Z" fill="url(#paint30_linear_37_5)"/>
<path d="M200.87 143.478L172.174 114.783V172.174H229.566L200.87 143.478Z" fill="url(#paint31_linear_37_5)"/>
<path fill-rule="evenodd" clip-rule="evenodd" d="M229.566 459.131C187.752 459.131 148.549 447.952 114.783 428.419V386.384L72.7473 344.348H30.7118C11.1792 310.582 0 271.379 0 229.566C0 187.752 11.1792 148.549 30.7118 114.783H72.7473L114.783 72.7473V30.7118C148.549 11.1792 187.752 0 229.566 0C271.379 0 310.582 11.1792 344.348 30.7118V72.7473L386.384 114.783H428.419C447.952 148.549 459.131 187.752 459.131 229.566C459.131 271.379 447.952 310.582 428.419 344.348H386.384L344.348 386.384V428.419C310.582 447.952 271.379 459.131 229.566 459.131ZM401.74 229.566L430.435 258.261L401.74 286.957L344.348 344.348V286.957L315.653 315.653V373.044L286.957 401.74L258.261 430.435L229.566 401.74L198.854 430.435L170.83 401.74L114.783 344.348H172.174L143.478 315.653H86.0871L57.3914 286.957L28.6957 258.261L57.3914 229.566L28.6957 200.87L57.3914 172.174L114.783 114.783V172.174L143.478 143.478V86.0871L172.174 57.3914L200.87 28.6957L229.566 57.3914L258.261 28.6957L286.957 57.3914L344.348 114.783H286.957L315.653 143.478H373.044L401.74 172.174L430.435 200.87L401.74 229.566Z" fill="url(#paint32_linear_37_5)"/>
<defs>
<linearGradient id="paint0_linear_37_5" x1="229.384" y1="-1.01452e-06" x2="229.748" y2="459.131" gradientUnits="userSpaceOnUse">
<stop stop-color="#FF3374"/>
<stop offset="0.245" stop-color="#F541A4"/>
<stop offset="0.495" stop-color="#EC41F5"/>
<stop offset="0.745" stop-color="#A741F5"/>
<stop offset="1" stop-color="#00B2FF"/>
</linearGradient>
<linearGradient id="paint1_linear_37_5" x1="229.384" y1="-1.01452e-06" x2="229.748" y2="459.131" gradientUnits="userSpaceOnUse">
<stop stop-color="#FF3374"/>
<stop offset="0.245" stop-color="#F541A4"/>
<stop offset="0.495" stop-color="#EC41F5"/>
<stop offset="0.745" stop-color="#A741F5"/>
<stop offset="1" stop-color="#00B2FF"/>
</linearGradient>
<linearGradient id="paint2_linear_37_5" x1="229.384" y1="-1.01452e-06" x2="229.748" y2="459.131" gradientUnits="userSpaceOnUse">
<stop stop-color="#FF3374"/>
<stop offset="0.245" stop-color="#F541A4"/>
<stop offset="0.495" stop-color="#EC41F5"/>
<stop offset="0.745" stop-color="#A741F5"/>
<stop offset="1" stop-color="#00B2FF"/>
</linearGradient>
<linearGradient id="paint3_linear_37_5" x1="229.384" y1="-1.01452e-06" x2="229.748" y2="459.131" gradientUnits="userSpaceOnUse">
<stop stop-color="#FF3374"/>
<stop offset="0.245" stop-color="#F541A4"/>
<stop offset="0.495" stop-color="#EC41F5"/>
<stop offset="0.745" stop-color="#A741F5"/>
<stop offset="1" stop-color="#00B2FF"/>
</linearGradient>
<linearGradient id="paint4_linear_37_5" x1="229.384" y1="-1.01452e-06" x2="229.748" y2="459.131" gradientUnits="userSpaceOnUse">
<stop stop-color="#FF3374"/>
<stop offset="0.245" stop-color="#F541A4"/>
<stop offset="0.495" stop-color="#EC41F5"/>
<stop offset="0.745" stop-color="#A741F5"/>
<stop offset="1" stop-color="#00B2FF"/>
</linearGradient>
<linearGradient id="paint5_linear_37_5" x1="229.384" y1="-1.01452e-06" x2="229.748" y2="459.131" gradientUnits="userSpaceOnUse">
<stop stop-color="#FF3374"/>
<stop offset="0.245" stop-color="#F541A4"/>
<stop offset="0.495" stop-color="#EC41F5"/>
<stop offset="0.745" stop-color="#A741F5"/>
<stop offset="1" stop-color="#00B2FF"/>
</linearGradient>
<linearGradient id="paint6_linear_37_5" x1="229.384" y1="-1.01452e-06" x2="229.748" y2="459.131" gradientUnits="userSpaceOnUse">
<stop stop-color="#FF3374"/>
<stop offset="0.245" stop-color="#F541A4"/>
<stop offset="0.495" stop-color="#EC41F5"/>
<stop offset="0.745" stop-color="#A741F5"/>
<stop offset="1" stop-color="#00B2FF"/>
</linearGradient>
<linearGradient id="paint7_linear_37_5" x1="229.384" y1="-1.01452e-06" x2="229.748" y2="459.131" gradientUnits="userSpaceOnUse">
<stop stop-color="#FF3374"/>
<stop offset="0.245" stop-color="#F541A4"/>
<stop offset="0.495" stop-color="#EC41F5"/>
<stop offset="0.745" stop-color="#A741F5"/>
<stop offset="1" stop-color="#00B2FF"/>
</linearGradient>
<linearGradient id="paint8_linear_37_5" x1="229.384" y1="-1.01452e-06" x2="229.748" y2="459.131" gradientUnits="userSpaceOnUse">
<stop stop-color="#FF3374"/>
<stop offset="0.245" stop-color="#F541A4"/>
<stop offset="0.495" stop-color="#EC41F5"/>
<stop offset="0.745" stop-color="#A741F5"/>
<stop offset="1" stop-color="#00B2FF"/>
</linearGradient>
<linearGradient id="paint9_linear_37_5" x1="229.384" y1="-1.01452e-06" x2="229.748" y2="459.131" gradientUnits="userSpaceOnUse">
<stop stop-color="#FF3374"/>
<stop offset="0.245" stop-color="#F541A4"/>
<stop offset="0.495" stop-color="#EC41F5"/>
<stop offset="0.745" stop-color="#A741F5"/>
<stop offset="1" stop-color="#00B2FF"/>
</linearGradient>
<linearGradient id="paint10_linear_37_5" x1="229.384" y1="-1.01452e-06" x2="229.748" y2="459.131" gradientUnits="userSpaceOnUse">
<stop stop-color="#FF3374"/>
<stop offset="0.245" stop-color="#F541A4"/>
<stop offset="0.495" stop-color="#EC41F5"/>
<stop offset="0.745" stop-color="#A741F5"/>
<stop offset="1" stop-color="#00B2FF"/>
</linearGradient>
<linearGradient id="paint11_linear_37_5" x1="229.384" y1="-1.01452e-06" x2="229.748" y2="459.131" gradientUnits="userSpaceOnUse">
<stop stop-color="#FF3374"/>
<stop offset="0.245" stop-color="#F541A4"/>
<stop offset="0.495" stop-color="#EC41F5"/>
<stop offset="0.745" stop-color="#A741F5"/>
<stop offset="1" stop-color="#00B2FF"/>
</linearGradient>
<linearGradient id="paint12_linear_37_5" x1="229.384" y1="-1.01452e-06" x2="229.748" y2="459.131" gradientUnits="userSpaceOnUse">
<stop stop-color="#FF3374"/>
<stop offset="0.245" stop-color="#F541A4"/>
<stop offset="0.495" stop-color="#EC41F5"/>
<stop offset="0.745" stop-color="#A741F5"/>
<stop offset="1" stop-color="#00B2FF"/>
</linearGradient>
<linearGradient id="paint13_linear_37_5" x1="229.384" y1="-1.01452e-06" x2="229.748" y2="459.131" gradientUnits="userSpaceOnUse">
<stop stop-color="#FF3374"/>
<stop offset="0.245" stop-color="#F541A4"/>
<stop offset="0.495" stop-color="#EC41F5"/>
<stop offset="0.745" stop-color="#A741F5"/>
<stop offset="1" stop-color="#00B2FF"/>
</linearGradient>
<linearGradient id="paint14_linear_37_5" x1="229.384" y1="-1.01452e-06" x2="229.748" y2="459.131" gradientUnits="userSpaceOnUse">
<stop stop-color="#FF3374"/>
<stop offset="0.245" stop-color="#F541A4"/>
<stop offset="0.495" stop-color="#EC41F5"/>
<stop offset="0.745" stop-color="#A741F5"/>
<stop offset="1" stop-color="#00B2FF"/>
</linearGradient>
<linearGradient id="paint15_linear_37_5" x1="229.384" y1="-1.01452e-06" x2="229.748" y2="459.131" gradientUnits="userSpaceOnUse">
<stop stop-color="#FF3374"/>
<stop offset="0.245" stop-color="#F541A4"/>
<stop offset="0.495" stop-color="#EC41F5"/>
<stop offset="0.745" stop-color="#A741F5"/>
<stop offset="1" stop-color="#00B2FF"/>
</linearGradient>
<linearGradient id="paint16_linear_37_5" x1="229.384" y1="-1.01452e-06" x2="229.748" y2="459.131" gradientUnits="userSpaceOnUse">
<stop stop-color="#FF3374"/>
<stop offset="0.245" stop-color="#F541A4"/>
<stop offset="0.495" stop-color="#EC41F5"/>
<stop offset="0.745" stop-color="#A741F5"/>
<stop offset="1" stop-color="#00B2FF"/>
</linearGradient>
<linearGradient id="paint17_linear_37_5" x1="229.384" y1="-1.01452e-06" x2="229.748" y2="459.131" gradientUnits="userSpaceOnUse">
<stop stop-color="#FF3374"/>
<stop offset="0.245" stop-color="#F541A4"/>
<stop offset="0.495" stop-color="#EC41F5"/>
<stop offset="0.745" stop-color="#A741F5"/>
<stop offset="1" stop-color="#00B2FF"/>
</linearGradient>
<linearGradient id="paint18_linear_37_5" x1="229.384" y1="-1.01452e-06" x2="229.748" y2="459.131" gradientUnits="userSpaceOnUse">
<stop stop-color="#FF3374"/>
<stop offset="0.245" stop-color="#F541A4"/>
<stop offset="0.495" stop-color="#EC41F5"/>
<stop offset="0.745" stop-color="#A741F5"/>
<stop offset="1" stop-color="#00B2FF"/>
</linearGradient>
<linearGradient id="paint19_linear_37_5" x1="229.384" y1="-1.01452e-06" x2="229.748" y2="459.131" gradientUnits="userSpaceOnUse">
<stop stop-color="#FF3374"/>
<stop offset="0.245" stop-color="#F541A4"/>
<stop offset="0.495" stop-color="#EC41F5"/>
<stop offset="0.745" stop-color="#A741F5"/>
<stop offset="1" stop-color="#00B2FF"/>
</linearGradient>
<linearGradient id="paint20_linear_37_5" x1="229.384" y1="-1.01452e-06" x2="229.748" y2="459.131" gradientUnits="userSpaceOnUse">
<stop stop-color="#FF3374"/>
<stop offset="0.245" stop-color="#F541A4"/>
<stop offset="0.495" stop-color="#EC41F5"/>
<stop offset="0.745" stop-color="#A741F5"/>
<stop offset="1" stop-color="#00B2FF"/>
</linearGradient>
<linearGradient id="paint21_linear_37_5" x1="229.384" y1="-1.01452e-06" x2="229.748" y2="459.131" gradientUnits="userSpaceOnUse">
<stop stop-color="#FF3374"/>
<stop offset="0.245" stop-color="#F541A4"/>
<stop offset="0.495" stop-color="#EC41F5"/>
<stop offset="0.745" stop-color="#A741F5"/>
<stop offset="1" stop-color="#00B2FF"/>
</linearGradient>
<linearGradient id="paint22_linear_37_5" x1="229.384" y1="-1.01452e-06" x2="229.748" y2="459.131" gradientUnits="userSpaceOnUse">
<stop stop-color="#FF3374"/>
<stop offset="0.245" stop-color="#F541A4"/>
<stop offset="0.495" stop-color="#EC41F5"/>
<stop offset="0.745" stop-color="#A741F5"/>
<stop offset="1" stop-color="#00B2FF"/>
</linearGradient>
<linearGradient id="paint23_linear_37_5" x1="229.384" y1="-1.01452e-06" x2="229.748" y2="459.131" gradientUnits="userSpaceOnUse">
<stop stop-color="#FF3374"/>
<stop offset="0.245" stop-color="#F541A4"/>
<stop offset="0.495" stop-color="#EC41F5"/>
<stop offset="0.745" stop-color="#A741F5"/>
<stop offset="1" stop-color="#00B2FF"/>
</linearGradient>
<linearGradient id="paint24_linear_37_5" x1="229.384" y1="-1.01452e-06" x2="229.748" y2="459.131" gradientUnits="userSpaceOnUse">
<stop stop-color="#FF3374"/>
<stop offset="0.245" stop-color="#F541A4"/>
<stop offset="0.495" stop-color="#EC41F5"/>
<stop offset="0.745" stop-color="#A741F5"/>
<stop offset="1" stop-color="#00B2FF"/>
</linearGradient>
<linearGradient id="paint25_linear_37_5" x1="229.384" y1="-1.01452e-06" x2="229.748" y2="459.131" gradientUnits="userSpaceOnUse">
<stop stop-color="#FF3374"/>
<stop offset="0.245" stop-color="#F541A4"/>
<stop offset="0.495" stop-color="#EC41F5"/>
<stop offset="0.745" stop-color="#A741F5"/>
<stop offset="1" stop-color="#00B2FF"/>
</linearGradient>
<linearGradient id="paint26_linear_37_5" x1="229.384" y1="-1.01452e-06" x2="229.748" y2="459.131" gradientUnits="userSpaceOnUse">
<stop stop-color="#FF3374"/>
<stop offset="0.245" stop-color="#F541A4"/>
<stop offset="0.495" stop-color="#EC41F5"/>
<stop offset="0.745" stop-color="#A741F5"/>
<stop offset="1" stop-color="#00B2FF"/>
</linearGradient>
<linearGradient id="paint27_linear_37_5" x1="229.384" y1="-1.01452e-06" x2="229.748" y2="459.131" gradientUnits="userSpaceOnUse">
<stop stop-color="#FF3374"/>
<stop offset="0.245" stop-color="#F541A4"/>
<stop offset="0.495" stop-color="#EC41F5"/>
<stop offset="0.745" stop-color="#A741F5"/>
<stop offset="1" stop-color="#00B2FF"/>
</linearGradient>
<linearGradient id="paint28_linear_37_5" x1="229.384" y1="-1.01452e-06" x2="229.748" y2="459.131" gradientUnits="userSpaceOnUse">
<stop stop-color="#FF3374"/>
<stop offset="0.245" stop-color="#F541A4"/>
<stop offset="0.495" stop-color="#EC41F5"/>
<stop offset="0.745" stop-color="#A741F5"/>
<stop offset="1" stop-color="#00B2FF"/>
</linearGradient>
<linearGradient id="paint29_linear_37_5" x1="229.384" y1="-1.01452e-06" x2="229.748" y2="459.131" gradientUnits="userSpaceOnUse">
<stop stop-color="#FF3374"/>
<stop offset="0.245" stop-color="#F541A4"/>
<stop offset="0.495" stop-color="#EC41F5"/>
<stop offset="0.745" stop-color="#A741F5"/>
<stop offset="1" stop-color="#00B2FF"/>
</linearGradient>
<linearGradient id="paint30_linear_37_5" x1="229.384" y1="-1.01452e-06" x2="229.748" y2="459.131" gradientUnits="userSpaceOnUse">
<stop stop-color="#FF3374"/>
<stop offset="0.245" stop-color="#F541A4"/>
<stop offset="0.495" stop-color="#EC41F5"/>
<stop offset="0.745" stop-color="#A741F5"/>
<stop offset="1" stop-color="#00B2FF"/>
</linearGradient>
<linearGradient id="paint31_linear_37_5" x1="229.384" y1="-1.01452e-06" x2="229.748" y2="459.131" gradientUnits="userSpaceOnUse">
<stop stop-color="#FF3374"/>
<stop offset="0.245" stop-color="#F541A4"/>
<stop offset="0.495" stop-color="#EC41F5"/>
<stop offset="0.745" stop-color="#A741F5"/>
<stop offset="1" stop-color="#00B2FF"/>
</linearGradient>
<linearGradient id="paint32_linear_37_5" x1="229.384" y1="-1.01452e-06" x2="229.748" y2="459.131" gradientUnits="userSpaceOnUse">
<stop stop-color="#FF3374"/>
<stop offset="0.245" stop-color="#F541A4"/>
<stop offset="0.495" stop-color="#EC41F5"/>
<stop offset="0.745" stop-color="#A741F5"/>
<stop offset="1" stop-color="#00B2FF"/>
</linearGradient>
</defs>
</svg>
