<svg width="40" height="59" viewBox="0 0 40 59" fill="none" xmlns="http://www.w3.org/2000/svg">
<path d="M11.1838 50.0834L11.1809 50.0799C10.1893 48.8899 9.10409 47.5084 8.01998 45.8336C6.52981 43.3992 5.11341 40.79 3.99548 38.5168C2.87122 36.2308 2.06549 34.3182 1.77919 33.2684C1.21023 31.1823 1.60919 30.0502 2.0968 29.4L2.10172 29.3934L2.10642 29.3867C2.68781 28.5562 3.71078 28.1 4.9968 28.1C5.80744 28.1 6.68303 28.4431 7.5858 29.0726C8.48531 29.6999 9.37687 30.5877 10.2082 31.6146L11.0968 32.7123V31.3V14.8C11.0968 12.3829 13.0661 10.5 15.3968 10.5C17.7207 10.5 19.6968 12.4761 19.6968 14.8V21.5V22.2385L20.3825 21.9642C20.8222 21.7884 21.259 21.7 21.7968 21.7C23.3158 21.7 24.6691 22.505 25.4857 23.6846L25.7467 24.0616L26.1449 23.8341C26.7608 23.4821 27.4735 23.3 28.2968 23.3C30.2735 23.3 31.9689 24.6497 32.4117 26.4213L32.5507 26.977L33.0825 26.7642C33.5086 26.5938 34.0423 26.5 34.6968 26.5C37.1139 26.5 38.9968 28.4693 38.9968 30.8V35.6C38.9968 39.634 38.2107 42.9827 37.4117 46.1787L37.4109 46.1822C37.3556 46.4104 37.3001 46.6375 37.2449 46.8639C36.5044 49.8983 35.7968 52.7981 35.7968 56.4C35.7968 57.0639 35.2822 57.6 34.6968 57.6H15.3968C14.7729 57.6 14.2968 57.1239 14.2968 56.5C14.2968 53.8829 13.0503 52.3615 11.3572 50.2952C11.2999 50.2252 11.2421 50.1546 11.1838 50.0834ZM16.5052 54.991L16.5809 55.4H16.9968H33.1968H33.669L33.696 54.9285C33.8931 51.4798 34.582 48.6208 35.2823 45.7194C36.0836 42.5141 36.7968 39.3644 36.7968 35.6V30.5C36.7968 29.3239 35.8729 28.4 34.6968 28.4C33.5207 28.4 32.5968 29.3239 32.5968 30.5V32.4C32.5968 33.0239 32.1207 33.5 31.4968 33.5C30.8729 33.5 30.3968 33.0239 30.3968 32.4V27.3C30.3968 26.1239 29.4729 25.2 28.2968 25.2C27.1207 25.2 26.1968 26.1239 26.1968 27.3V30.8C26.1968 31.4239 25.7207 31.9 25.0968 31.9C24.4729 31.9 23.9968 31.4239 23.9968 30.8V25.7C23.9968 24.5239 23.0729 23.6 21.8968 23.6C20.7207 23.6 19.7968 24.5239 19.7968 25.7V29.2C19.7968 29.8239 19.3207 30.3 18.6968 30.3C18.0729 30.3 17.5968 29.8239 17.5968 29.2V14.4C17.5968 13.2239 16.6729 12.3 15.4968 12.3C14.3207 12.3 13.3968 13.2239 13.3968 14.4V38.8C13.3968 39.4239 12.9207 39.9 12.2968 39.9C11.6729 39.9 11.1968 39.4239 11.1968 38.8V37.5V37.4086L11.1644 37.3231C10.4391 35.4061 9.25375 33.6309 8.12379 32.334C7.55834 31.6851 6.99739 31.145 6.50276 30.7623C6.25588 30.5714 6.0165 30.4125 5.79409 30.2992C5.58238 30.1914 5.33886 30.1 5.0968 30.1C4.86817 30.1 4.61551 30.126 4.39148 30.2504C4.15471 30.382 4.01451 30.5855 3.9336 30.8098C3.77592 31.1536 3.69724 31.7715 3.91604 32.5374L3.91603 32.5374L3.91712 32.5411C4.18112 33.4387 4.95013 35.1997 6.02459 37.3486C7.10529 39.51 8.5119 42.0971 10.0695 44.6597L10.0695 44.6597L10.0728 44.665C11.0909 46.2939 12.1091 47.5158 13.1066 48.7128L13.1095 48.7162C14.7107 50.7178 16.0308 52.4294 16.5052 54.991Z" fill="white" stroke="white"/>
<path d="M22.2516 18.4746C23.3204 17.3159 23.9776 15.9189 24.145 14.4497C24.3124 12.9806 23.983 11.5012 23.1959 10.1877C22.4089 8.87417 21.1973 7.78189 19.7056 7.04085C18.2138 6.29982 16.5046 5.94126 14.7815 6.00784C13.0584 6.07443 11.394 6.56336 9.9863 7.41644C8.57864 8.26951 7.48707 9.4508 6.84154 10.8197C6.19602 12.1885 6.02372 13.6873 6.34517 15.1376C6.66662 16.5878 7.46828 17.9285 8.6547 19" stroke="white" stroke-width="3" stroke-linecap="round" stroke-linejoin="round"/>
<path d="M25.3913 20.3615C26.935 18.6681 27.8843 16.6262 28.1261 14.479C28.3679 12.3318 27.8921 10.1696 26.7552 8.24984C25.6184 6.3301 23.8684 4.73369 21.7136 3.65064C19.5588 2.56759 17.09 2.04354 14.6011 2.14086C12.1122 2.23817 9.70794 2.95277 7.67465 4.19957C5.64136 5.44637 4.06466 7.17286 3.13223 9.17351C2.1998 11.1742 1.95093 13.3647 2.41525 15.4843C2.87957 17.6039 4.03751 19.5634 5.75123 21.1294" stroke="white" stroke-width="3" stroke-linecap="round" stroke-linejoin="round"/>
</svg>
